<?xml version="1.0" encoding="utf-8"?>
<!-- Generator: Adobe Illustrator 15.0.0, SVG Export Plug-In . SVG Version: 6.00 Build 0)  -->
<!DOCTYPE svg PUBLIC "-//W3C//DTD SVG 1.1//EN" "http://www.w3.org/Graphics/SVG/1.1/DTD/svg11.dtd">
<svg version="1.1" id="Layer_1" xmlns="http://www.w3.org/2000/svg" xmlns:xlink="http://www.w3.org/1999/xlink" x="0px" y="0px"
	 width="1190.55px" height="841.89px" viewBox="0 0 1190.55 841.89" enable-background="new 0 0 1190.55 841.89"
	 xml:space="preserve">
<rect x="28.347" y="28.347" fill="#706F6F" stroke="#C6C6C6" stroke-miterlimit="10" width="1136" height="301"/>
<text transform="matrix(1 0 0 1 122 209.0146)" fill="#F6F6F6" font-family="'MyriadPro-Semibold'" font-size="122.1956">In case of fire</text>
<text transform="matrix(1 0 0 1 262.3271 453)"><tspan x="0" y="0" fill="#706F6F" font-family="'MyriadPro-Semibold'" font-size="72">1. git commi</tspan><tspan x="383.826" y="0" fill="#706F6F" font-family="'MyriadPro-Semibold'" font-size="72" letter-spacing="-5">t</tspan></text>
<text transform="matrix(1 0 0 1 262.3271 736.168)" fill="#706F6F" font-family="'MyriadPro-Semibold'" font-size="72">3. leave building</text>
<text transform="matrix(1 0 0 1 262.3271 584.0664)" fill="#706F6F" font-family="'MyriadPro-Semibold'" font-size="72">2. git push</text>
<g id="SgdmZQ.tif">
	<g>
		<path fill-rule="evenodd" clip-rule="evenodd" fill="#FFFFFF" d="M140,389c-11.849,4.151-20.745,11.255-24,24
			c-8.333,0-16.667,0-25,0c0-8,0-16,0-24C107.333,389,123.667,389,140,389z"/>
		<path fill-rule="evenodd" clip-rule="evenodd" fill="#706F6F" d="M140,389c4.667,0,9.333,0,14,0c11.849,4.151,20.745,11.255,24,24
			c8.333,0,16.667,0,25,0c0,5.333,0,10.667,0,16c-8,0-16,0-24,0c-4.942,11.391-12.38,20.287-25,24c-4.667,0-9.333,0-14,0
			c-11.849-4.151-20.745-11.255-24-24c-8.333,0-16.667,0-25,0c0-5.333,0-10.667,0-16c8.333,0,16.667,0,25,0
			C119.255,400.255,128.151,393.151,140,389z M131,421c0,21.744,32.976,20.606,32-1c-0.404-8.947-6.35-16.286-19-14
			C135.407,407.553,131,411.993,131,421z"/>
		<path fill-rule="evenodd" clip-rule="evenodd" fill="#FFFFFF" d="M154,389c16.333,0,32.667,0,49,0c0,8,0,16,0,24
			c-8.333,0-16.667,0-25,0C174.745,400.255,165.849,393.151,154,389z"/>
		<path fill-rule="evenodd" clip-rule="evenodd" fill="#FFFFFF" d="M144,406c12.65-2.286,18.596,5.053,19,14
			c0.976,21.606-32,22.744-32,1C131,411.993,135.407,407.553,144,406z"/>
		<path fill-rule="evenodd" clip-rule="evenodd" fill="#FFFFFF" d="M91,429c8.333,0,16.667,0,25,0c3.255,12.745,12.151,19.849,24,24
			c-16.333,0-32.667,0-49,0C91,445,91,437,91,429z"/>
		<path fill-rule="evenodd" clip-rule="evenodd" fill="#FFFFFF" d="M203,429c0,8,0,16,0,24c-16.333,0-32.667,0-49,0
			c12.62-3.713,20.058-12.609,25-24C187,429,195,429,203,429z"/>
	</g>
</g>
<g id="fL9a3z.tif">
	<g>
		<path fill-rule="evenodd" clip-rule="evenodd" fill="#FFFFFF" d="M154.831,492.875c-7.852,7.894-16.146,16.692-23.997,23.745
			c-0.851-10.261-8.428-16.713-18.188-15.662c-7.496,0.808-12.474,6.663-14.146,13.641c0-7.241,0-14.482,0-21.724
			C117.277,492.875,136.054,492.875,154.831,492.875z"/>
		<path fill-rule="evenodd" clip-rule="evenodd" fill="#706F6F" d="M154.831,492.875c0.084,0,0.168,0,0.253,0
			c0,5.389,0,10.777,0,16.167c18.349-1.232,31.163,5.387,32.333,21.471c1.116,15.326-0.833,36.114,0,53.047
			c3.708,3.028,7.08,6.394,8.083,12.125c0,1.516,0,3.031,0,4.547c-1.647,7.615-6.279,12.246-13.893,13.894c-1.516,0-3.031,0-4.547,0
			c-15.066-1.312-18.641-24.298-5.81-30.312c0-7.371,0-16.33,0-25.513c0-11.619,2.714-28.888-4.547-32.334
			c-3.212-1.524-6.908-0.4-11.62-0.758c0,5.221,0,10.441,0,15.662c-0.798,0.267-2.021-1.263-3.031-2.273
			c-6.739-6.739-14.209-14.577-21.219-21.219c-0.204,7.122-3.834,10.817-8.083,13.893c0,17.43,0,34.859,0,52.289
			c1.815,2.071,3.889,2.99,5.305,5.053c6.771,9.862,0.151,24.51-11.115,25.513c-1.516,0-3.031,0-4.547,0
			c-7.57-1.607-12.129-6.227-13.893-13.641c0-1.684,0-3.368,0-5.052c1.222-5.346,4.117-9.019,8.083-11.62c0-17.43,0-34.859,0-52.289
			c-3.692-3.044-7.08-6.393-8.083-12.125c0-1.6,0-3.199,0-4.8c1.672-6.978,6.65-12.833,14.146-13.641
			c9.76-1.051,17.336,5.401,18.188,15.662C138.685,509.567,146.979,500.769,154.831,492.875z M106.583,517.378
			c0.222,9.473,16.167,10.83,16.167-0.253c0-5.247-3.924-8.492-9.094-7.831C108.983,509.892,106.484,513.141,106.583,517.378z
			 M106.583,597.958c0,4.182,3.498,8.084,8.083,8.084c10.902,0,10.033-17.327-1.01-15.914
			C109.037,590.719,106.583,593.604,106.583,597.958z M171.25,597.958c0,4.182,3.498,8.084,8.083,8.084
			c10.902,0,10.033-17.327-1.011-15.914C173.704,590.719,171.25,593.604,171.25,597.958z"/>
		<path fill-rule="evenodd" clip-rule="evenodd" fill="#FFFFFF" d="M155.083,492.875c13.472,0,26.944,0,40.417,0
			c0,34.271,0,68.539,0,102.81c-1.004-5.731-4.375-9.097-8.083-12.125c-0.833-16.933,1.116-37.721,0-53.047
			c-1.17-16.084-13.984-22.703-32.333-21.471C155.083,503.652,155.083,498.264,155.083,492.875z"/>
		<path fill-rule="evenodd" clip-rule="evenodd" fill="#FFFFFF" d="M113.656,509.294c5.169-0.661,9.094,2.584,9.094,7.831
			c0,11.083-15.945,9.726-16.167,0.253C106.484,513.141,108.983,509.892,113.656,509.294z"/>
		<path fill-rule="evenodd" clip-rule="evenodd" fill="#FFFFFF" d="M177.06,614.125c-20.041,0-40.08,0-60.12,0
			c11.266-1.003,17.886-15.65,11.115-25.513c-1.416-2.062-3.49-2.981-5.305-5.053c0-17.43,0-34.859,0-52.289
			c4.25-3.075,7.88-6.771,8.083-13.893c7.009,6.642,14.48,14.479,21.219,21.219c1.01,1.011,2.233,2.54,3.031,2.273
			c0-5.221,0-10.441,0-15.662c4.711,0.357,8.408-0.767,11.62,0.758c7.261,3.446,4.547,20.715,4.547,32.334
			c0,9.183,0,18.142,0,25.513C158.419,589.827,161.994,612.812,177.06,614.125z"/>
		<path fill-rule="evenodd" clip-rule="evenodd" fill="#FFFFFF" d="M98.5,519.398c1.003,5.732,4.392,9.081,8.083,12.125
			c0,17.43,0,34.859,0,52.289c-3.967,2.602-6.861,6.274-8.083,11.62C98.5,570.088,98.5,544.743,98.5,519.398z"/>
		<path fill-rule="evenodd" clip-rule="evenodd" fill="#FFFFFF" d="M113.656,590.128c11.043-1.413,11.913,15.914,1.01,15.914
			c-4.585,0-8.083-3.902-8.083-8.084C106.583,593.604,109.037,590.719,113.656,590.128z"/>
		<path fill-rule="evenodd" clip-rule="evenodd" fill="#FFFFFF" d="M178.323,590.128c11.044-1.413,11.913,15.914,1.011,15.914
			c-4.585,0-8.083-3.902-8.083-8.084C171.25,593.604,173.704,590.719,178.323,590.128z"/>
		<path fill-rule="evenodd" clip-rule="evenodd" fill="#FFFFFF" d="M195.5,600.231c0,4.632,0,9.263,0,13.894
			c-4.631,0-9.262,0-13.893,0C189.221,612.478,193.853,607.847,195.5,600.231z"/>
		<path fill-rule="evenodd" clip-rule="evenodd" fill="#FFFFFF" d="M98.5,600.484c1.764,7.414,6.323,12.033,13.893,13.641
			c-4.631,0-9.262,0-13.893,0C98.5,609.578,98.5,605.031,98.5,600.484z"/>
	</g>
</g>
<g id="MrsQOT.tif">
	<g>
		<path fill-rule="evenodd" clip-rule="evenodd" fill="#706F6F" d="M85.413,648.215c41.125,0,82.252,0,123.377,0
			c0,41.189,0,82.381,0,123.57c-41.189,0-82.381,0-123.57,0c0-40.997,0-81.993,0-122.991
			C85.203,648.52,85.188,648.247,85.413,648.215z"/>
		<path fill-rule="evenodd" clip-rule="evenodd" fill="#FFFFFF" d="M179.056,660.765c-0.128,14.288,0.257,29.091-0.193,43.057
			c-3.54,0-7.08,0-10.619,0c-1.847-5.231-3.856-10.302-5.792-15.446c-7.112,0.097-11.71-2.32-13.129-7.916
			c-7.079,0-14.159,0-21.238,0c-3.793,5.797-7.392,11.787-11.006,17.764c1.838,1.509,4.311,2.383,6.179,3.861
			c3.139-4.584,5.75-9.696,8.882-14.288c4.312,0,8.624,0,12.936,0c-4.999,8.581-10.365,16.794-15.446,25.293
			c0,6.308,0,12.615,0,18.922c-7.208,0-14.417,0-21.625,0c0,2.317,0,4.634,0,6.951c9.525,0.45,19.887,0.064,29.734,0.193
			c0-6.308,0-12.615,0-18.922c7.512,10.187,14.298,21.1,21.625,31.472c3.089,0,6.178,0,9.268,0
			c-7.151-11.643-15.361-23.898-23.169-35.526c4.121-6.241,7.698-13.026,12.164-18.922c1.624,4.426,3.549,8.55,5.213,12.937
			c5.406,0,10.812,0,16.219,0c0,9.397,0,20.82,0,31.085c0,3.514,0.847,7.327,0.193,10.04c-0.295,1.229-2.413,2.992-3.668,4.248
			c-0.854,0.854-2.935,3.309-4.248,3.669c-2.368,0.649-5.178-0.472-7.917,0c-0.232-0.764,1.584-1.971,2.51-2.896
			c1.037-1.037,2.068-2.192,2.896-3.089c-2.638,0.6-6.564-0.795-9.46,0c-2.278,0.625-3.962,5.324-6.372,5.985
			c-3.082,0.845-7.596,0-11.392,0c-11.191,0-22.361,0-33.596,0c-0.234-0.766,0.823-1.21,1.352-1.738
			c1.117-1.117,4.93-4.058,5.406-5.792c0.857-3.123-0.625-6.506,0-10.427c-2.51-0.449-5.856-0.064-8.688-0.192
			c0-3.604,0-7.209,0-10.812c2.896,0,5.792,0,8.688,0c0.129-23.105-0.257-46.726,0.193-69.509
			C136.321,660.765,157.688,660.765,179.056,660.765z M151.639,680.459c3.843,9.781,20.818,4.691,16.798-6.951
			c-1.185-3.43-4.905-6.075-9.847-5.406C153.282,668.82,149.127,674.067,151.639,680.459z"/>
		<path fill-rule="evenodd" clip-rule="evenodd" fill="#706F6F" d="M158.589,668.102c4.942-0.669,8.662,1.977,9.847,5.406
			c4.02,11.643-12.955,16.732-16.798,6.951C149.127,674.067,153.282,668.82,158.589,668.102z"/>
	</g>
</g>
<g id="c3usp9.tif">
	<g>
		<path fill-rule="evenodd" clip-rule="evenodd" fill="#FFFFFF" d="M1007.808,28.624c43.288-9.86,110.911-1.437,163.595-4.239
			c-3.76,98.91,7.512,209.113-5.645,300.962c-2.84-3.85,3.711-13.652,0-16.956c-30.259-26.952-107.653-18.557-107.18-67.822
			c26.316,15.552,54.361,29.801,101.541,29.672c12.863-5.878,2.104-29.506,5.639-42.389
			c-50.188-24.452-106.44-44.355-118.463-97.495c33.446,5.995,52.656,59.312,112.824,59.345
			c33.76-64.962-71.788-61.899-50.771-131.406c16.115,16.152,24.207,38.328,50.771,46.628c11.86-16.521,2.826-48.743,5.639-72.062
			C1123.858,23.371,1058.969,31.157,1007.808,28.624z"/>
		<path fill-rule="evenodd" clip-rule="evenodd" fill="#FFFFFF" d="M1041.655,71.013c64.642-8.979,57.811,72.396,107.183,89.017
			C1083.114,169.819,1080.861,95.271,1041.655,71.013z"/>
		<path fill-rule="evenodd" clip-rule="evenodd" fill="#FFFFFF" d="M1154.478,244.808c-51.26,25.988-101.326-41.64-124.104-50.867
			C1095.963,176.269,1097.531,241.993,1154.478,244.808z"/>
		<path fill-rule="evenodd" clip-rule="evenodd" fill="#706F6F" d="M1165.758,325.347c-52.646,0-105.301,0-157.95,0
			c0-98.906,0-197.817,0-296.723c51.161,2.534,116.051-5.253,157.95,4.239c-2.812,23.318,6.222,55.541-5.639,72.062
			c-26.564-8.3-34.656-30.476-50.771-46.628c-21.017,69.507,84.531,66.444,50.771,131.406
			c-60.168-0.034-79.378-53.351-112.824-59.345c12.022,53.14,68.274,73.043,118.463,97.495c-3.535,12.882,7.225,36.511-5.639,42.389
			c-47.18,0.128-75.225-14.12-101.541-29.672c-0.474,49.265,76.921,40.87,107.18,67.822
			C1169.469,311.694,1162.918,321.497,1165.758,325.347z M1148.838,160.029c-49.372-16.62-42.541-97.995-107.183-89.017
			C1080.861,95.271,1083.114,169.819,1148.838,160.029z M1030.373,193.94c22.778,9.227,72.845,76.855,124.104,50.867
			C1097.531,241.993,1095.963,176.269,1030.373,193.94z"/>
	</g>
</g>
</svg>
